<svg width="468" height="92" viewBox="0 0 468 92" fill="currentColor" xmlns="http://www.w3.org/2000/svg">
  <path d="M18.7213 90V89.76C11.6413 84 10.0813 80.76 10.0813 73.2L9.72125 11.16L44.1613 87.36H45.9613L80.1613 11.52V74.76C80.1613 81.6 79.0813 84.6 75.2413 89.76V90H91.2013V89.76C87.2413 84.48 86.4013 81.72 86.4013 74.76V17.16C86.4013 9.12 87.8413 6.59999 93.7213 2.4V2.15999H81.6013L47.2813 78.36L13.2013 2.15999H0.00125016V2.4C5.16125 6.11999 6.84125 8.52 7.32125 13.92V73.2C7.32125 80.88 6.12125 83.88 0.96125 89.76V90H18.7213ZM140.014 91.8C164.974 91.8 183.934 72.12 183.934 46.2C183.934 20.28 164.974 0.359995 140.014 0.359995C115.054 0.359995 96.2141 20.28 96.2141 46.2C96.2141 72.12 115.054 91.8 140.014 91.8ZM140.014 89.4C117.814 89.4 104.134 70.8 104.134 46.2C104.134 21.48 117.814 2.75999 140.014 2.75999C162.094 2.75999 176.014 21.48 176.014 46.2C176.014 71.16 162.094 89.4 140.014 89.4ZM230.993 3.96C225.833 1.92 219.113 0.359995 211.553 0.359995C196.073 0.359995 185.753 7.44 185.753 21C185.753 36.12 197.993 41.16 210.113 46.32C221.993 51.48 233.033 56.04 233.033 70.44C233.033 81.96 226.073 89.4 211.673 89.4C197.873 89.4 190.193 83.4 184.793 69.84L183.833 70.2L186.233 87.24C192.833 90 200.753 91.8 209.273 91.8C225.113 91.8 239.393 85.32 239.393 68.04C239.393 51.96 226.913 46.2 214.553 40.8C202.553 35.76 190.793 31.56 190.793 18.84C190.793 10.68 196.193 2.75999 209.633 2.75999C219.233 2.75999 227.633 6.72 232.433 21L233.393 20.64L230.993 3.96ZM319.485 64.08L318.525 63.84C312.165 80.04 303.165 89.4 285.165 89.4C260.685 89.4 249.165 70.68 249.165 45.96C249.165 21.36 261.405 2.75999 287.325 2.75999C300.765 2.75999 310.005 8.75999 318.045 23.52L319.005 23.28L316.605 6.36C310.725 3.72 299.325 0.359995 287.805 0.359995C259.005 0.359995 241.245 20.4 241.245 45.96C241.245 71.52 257.325 91.8 284.685 91.8C299.565 91.8 312.645 85.92 317.085 82.44L319.485 64.08ZM326.334 90H342.414V89.76C338.574 84.6 337.614 81.96 337.614 75.12V45.84H388.014V75.12C388.014 81.96 387.054 84.6 383.214 89.76V90H399.294V89.76C395.454 84.6 394.494 81.96 394.494 75.12V17.04C394.494 10.2 395.454 7.56 399.294 2.4V2.15999H383.214V2.4C387.054 7.56 388.014 10.2 388.014 17.04V43.44H337.614V17.04C337.614 10.2 338.574 7.56 342.414 2.4V2.15999H326.334V2.4C330.174 7.56 331.134 10.2 331.134 17.04V75.12C331.134 81.96 330.174 84.6 326.334 89.76V90ZM467.923 70.56L466.963 70.2C460.363 80.28 455.083 86.76 447.403 87.12L417.043 87.96V47.04H436.363C439.483 47.04 442.603 53.28 444.883 56.64H445.843V34.44H444.883C442.363 38.16 439.603 44.64 436.363 44.64H417.043V4.2L446.563 4.91999C450.163 5.28 454.843 12.24 460.243 19.92L461.203 19.56L456.523 2.15999H405.763V2.4C409.003 7.32 410.443 10.56 410.443 15.96V76.2C410.443 81.48 409.003 84.84 405.763 89.76V90H462.523L467.923 70.56Z" />
</svg>